<svg width="13" height="18" viewBox="0 0 13 18" fill="none" xmlns="http://www.w3.org/2000/svg">
<g id="Account Icon">
<path id="Vector" d="M1.67432 4.81426C1.67432 5.76637 1.95665 6.6971 2.48561 7.48875C3.01458 8.2804 3.76641 8.89742 4.64605 9.26177C5.52568 9.62613 6.49361 9.72146 7.42743 9.53571C8.36124 9.34997 9.21901 8.89148 9.89225 8.21824C10.5655 7.54499 11.024 6.68723 11.2097 5.75341C11.3955 4.8196 11.3001 3.85167 10.9358 2.97204C10.5714 2.0924 9.95441 1.34057 9.16276 0.811603C8.37111 0.282639 7.44038 0.000305176 6.48827 0.000305176C5.21199 0.00179194 3.9884 0.509452 3.08593 1.41192C2.18346 2.31439 1.6758 3.53798 1.67432 4.81426ZM10.0464 4.81426C10.0464 5.51799 9.83773 6.20592 9.44675 6.79106C9.05578 7.37619 8.50008 7.83224 7.84991 8.10155C7.19975 8.37086 6.48432 8.44132 5.79411 8.30403C5.1039 8.16674 4.4699 7.82786 3.97229 7.33024C3.47467 6.83263 3.13579 6.19863 2.9985 5.50842C2.86121 4.81821 2.93167 4.10278 3.20098 3.45262C3.47028 2.80245 3.92634 2.24675 4.51147 1.85577C5.09661 1.4648 5.78454 1.25612 6.48827 1.25612C7.43162 1.25717 8.33604 1.63238 9.00309 2.29944C9.67014 2.96649 10.0454 3.8709 10.0464 4.81426Z" fill="#313638"/>
<path id="Vector_2" d="M7.39175e-07 15.6974C0.000689881 16.3078 0.243477 16.893 0.675097 17.3246C1.10672 17.7562 1.69192 17.999 2.30233 17.9997H10.6744C11.2848 17.999 11.87 17.7562 12.3016 17.3246C12.7333 16.893 12.9761 16.3078 12.9767 15.6974V14.0229C12.9776 12.6236 12.4587 11.2738 11.5206 10.2355C11.2935 9.98109 10.9838 9.81505 10.6463 9.76659C10.3087 9.71813 9.96486 9.79037 9.67533 9.97057C8.71566 10.5566 7.61297 10.8666 6.48852 10.8665C5.36407 10.8665 4.26142 10.5563 3.30183 9.97016C3.01185 9.79063 2.66796 9.71883 2.33037 9.76734C1.99278 9.81584 1.68301 9.98155 1.4553 10.2355C0.51787 11.2741 -0.00071465 12.6238 7.39175e-07 14.0229V15.6974ZM1.25581 14.0229C1.25539 12.9345 1.65872 11.8846 2.38776 11.0764C2.40729 11.0552 2.43099 11.0383 2.45738 11.0268C2.48377 11.0152 2.51226 11.0093 2.54107 11.0093C2.57507 11.009 2.60848 11.0182 2.63754 11.0359C3.79715 11.7441 5.12961 12.1188 6.48837 12.1188C7.84714 12.1188 9.17959 11.7441 10.3392 11.0359C10.3792 11.0134 10.4256 11.0051 10.4709 11.0123C10.5162 11.0196 10.5577 11.042 10.5886 11.0759C11.3178 11.8842 11.7213 12.9343 11.7209 14.0229V15.6974C11.7207 15.9748 11.6103 16.2409 11.4141 16.4371C11.2179 16.6333 10.9519 16.7436 10.6744 16.7439H2.30233C2.02485 16.7436 1.75882 16.6333 1.56261 16.4371C1.36641 16.2409 1.25607 15.9748 1.25581 15.6974V14.0229Z" fill="#313638"/>
</g>
</svg>
